<?xml version="1.0" encoding="UTF-8"?>
<!-- Generator: Adobe Illustrator 15.0.0, SVG Export Plug-In . SVG Version: 6.00 Build 0)  -->
<!DOCTYPE svg PUBLIC "-//W3C//DTD SVG 1.1//EN" "http://www.w3.org/Graphics/SVG/1.1/DTD/svg11.dtd">
<svg version="1.1" id="Calque_1" xmlns="http://www.w3.org/2000/svg" xmlns:xlink="http://www.w3.org/1999/xlink" x="0px" y="0px" width="180px" height="65px" viewBox="0 0 180 65" enable-background="new 0 0 180 65" xml:space="preserve">
<path fill="#004E7C" d="M37.948,13.406v4.535h-0.516c-0.397-1.424-0.906-2.393-1.526-2.906c-0.621-0.515-1.411-0.771-2.371-0.771  c-0.73,0-1.32,0.18-1.769,0.537c-0.448,0.358-0.673,0.757-0.673,1.193c0,0.542,0.167,1.008,0.5,1.396  c0.323,0.396,0.981,0.819,1.972,1.265l2.285,1.032c2.118,0.959,3.177,2.224,3.177,3.794c0,1.21-0.493,2.187-1.479,2.929  c-0.985,0.742-2.089,1.112-3.31,1.112c-0.876,0-1.878-0.145-3.005-0.436c-0.344-0.098-0.626-0.146-0.845-0.146  c-0.24,0-0.428,0.126-0.564,0.377H29.31v-4.753h0.516c0.292,1.356,0.851,2.38,1.675,3.067c0.823,0.688,1.747,1.032,2.77,1.032  c0.72,0,1.307-0.196,1.761-0.588c0.454-0.394,0.681-0.865,0.681-1.419c0-0.668-0.253-1.23-0.759-1.686  c-0.506-0.456-1.516-1.032-3.028-1.729s-2.504-1.328-2.973-1.891c-0.469-0.552-0.704-1.25-0.704-2.093  c0-1.096,0.403-2.011,1.212-2.748c0.809-0.736,1.855-1.104,3.138-1.104c0.563,0,1.247,0.111,2.05,0.335  c0.532,0.145,0.886,0.218,1.064,0.218c0.167,0,0.298-0.034,0.392-0.103c0.093-0.067,0.203-0.218,0.329-0.45H37.948z"/>
<path fill="#004E7C" d="M45.358,9.23v4.477h3.597v1.041h-3.597v8.834c0,0.883,0.143,1.477,0.429,1.784  c0.286,0.308,0.652,0.462,1.101,0.462c0.37,0,0.728-0.102,1.076-0.305c0.347-0.204,0.616-0.504,0.807-0.901h0.655  c-0.393,0.974-0.947,1.704-1.664,2.194c-0.717,0.491-1.456,0.737-2.218,0.737c-0.516,0-1.02-0.127-1.513-0.38  c-0.493-0.253-0.856-0.614-1.092-1.086c-0.235-0.471-0.353-1.197-0.353-2.178v-9.162H40.54v-0.49  c0.616-0.219,1.311-0.045,2.322-1.109c1.561-1.64,1.516-2.916,1.976-3.918H45.358z"/>
<path fill="#004E7C" d="M70.228,13.388c1.996,0.268,3.497,1.245,4.502,2.934c0.852,1.44,1.167,3.006,0.94,4.696  c-0.159,1.188-0.603,2.353-1.333,3.493c-0.729,1.141-1.631,1.954-2.708,2.439c-1.076,0.484-2.224,0.646-3.443,0.483  c-1.987-0.268-3.46-1.274-4.417-3.025c-0.81-1.474-1.102-3.047-0.878-4.718c0.163-1.217,0.625-2.386,1.386-3.508  c0.761-1.122,1.669-1.905,2.725-2.349C68.058,13.39,69.133,13.241,70.228,13.388 M69.655,14.27  c-0.509-0.068-1.041,0.016-1.595,0.251c-0.555,0.236-1.041,0.714-1.459,1.435c-0.419,0.721-0.708,1.681-0.869,2.877  c-0.259,1.932-0.1,3.649,0.475,5.15c0.576,1.504,1.488,2.338,2.736,2.504c0.931,0.126,1.75-0.157,2.459-0.85  c0.708-0.691,1.188-1.979,1.44-3.862c0.315-2.356,0.06-4.278-0.768-5.766C71.517,14.991,70.711,14.412,69.655,14.27"/>
<path fill="#004E7C" d="M101.965,13.388c1.996,0.268,3.497,1.245,4.503,2.934c0.853,1.44,1.166,3.006,0.939,4.696  c-0.158,1.188-0.602,2.353-1.332,3.493c-0.729,1.141-1.631,1.954-2.707,2.439c-1.077,0.484-2.225,0.646-3.444,0.483  c-1.987-0.268-3.459-1.274-4.416-3.025c-0.81-1.474-1.104-3.047-0.879-4.718c0.162-1.217,0.624-2.386,1.386-3.508  c0.761-1.122,1.669-1.905,2.725-2.349C99.796,13.39,100.871,13.241,101.965,13.388 M101.393,14.27  c-0.508-0.068-1.04,0.016-1.595,0.251c-0.554,0.236-1.041,0.714-1.459,1.435s-0.708,1.681-0.868,2.877  c-0.26,1.932-0.101,3.649,0.475,5.15c0.575,1.504,1.488,2.338,2.736,2.504c0.931,0.126,1.75-0.157,2.459-0.85  c0.707-0.691,1.188-1.979,1.439-3.862c0.315-2.356,0.06-4.278-0.767-5.766C103.255,14.991,102.449,14.412,101.393,14.27"/>
<path fill="#004E7C" d="M82.24,16.258c1.653-1.956,3.229-2.934,4.727-2.934c0.771,0,1.433,0.188,1.986,0.566  c0.555,0.378,0.996,1.001,1.324,1.867c0.227,0.605,0.34,1.533,0.34,2.783v5.914c0,0.877,0.071,1.472,0.215,1.784  c0.113,0.252,0.295,0.449,0.547,0.591c0.252,0.141,0.716,0.21,1.393,0.21v0.545h-6.975V27.04h0.293c0.657,0,1.117-0.098,1.379-0.295  c0.261-0.195,0.443-0.485,0.546-0.869c0.04-0.149,0.062-0.625,0.062-1.421v-5.672c0-1.26-0.167-2.176-0.5-2.745  c-0.334-0.569-0.896-0.854-1.687-0.854c-1.222,0-2.438,0.656-3.649,1.967v7.305c0,0.937,0.057,1.518,0.17,1.739  c0.144,0.292,0.342,0.506,0.593,0.642c0.251,0.137,0.763,0.204,1.532,0.204v0.545h-6.975V27.04h0.309  c0.717,0,1.203-0.178,1.454-0.536s0.378-1.041,0.378-2.049v-5.143c0-1.664-0.039-2.677-0.116-3.039  c-0.077-0.363-0.195-0.611-0.354-0.741c-0.158-0.132-0.371-0.196-0.639-0.196c-0.287,0-0.631,0.076-1.031,0.226l-0.231-0.544  l4.249-1.693h0.662V16.258z"/>
<path fill="#004E7C" d="M113.93,16.248c1.009-0.999,1.605-1.575,1.786-1.724c0.456-0.381,0.945-0.676,1.47-0.886  c0.526-0.211,1.046-0.314,1.562-0.314c0.869,0,1.615,0.249,2.242,0.749c0.626,0.501,1.045,1.226,1.257,2.175  c1.041-1.2,1.92-1.986,2.637-2.361s1.454-0.563,2.211-0.563c0.738,0,1.392,0.188,1.962,0.563c0.571,0.375,1.023,0.987,1.357,1.836  c0.222,0.581,0.332,1.49,0.332,2.729v5.908c0,0.86,0.066,1.45,0.198,1.77c0.1,0.22,0.286,0.407,0.559,0.563  c0.274,0.153,0.719,0.23,1.334,0.23v0.54h-6.848v-0.54h0.288c0.597,0,1.06-0.113,1.394-0.344c0.232-0.16,0.398-0.415,0.501-0.765  c0.039-0.17,0.06-0.654,0.06-1.455v-5.908c0-1.12-0.136-1.908-0.408-2.369c-0.395-0.64-1.025-0.96-1.895-0.96  c-0.535,0-1.073,0.133-1.613,0.397s-1.194,0.757-1.962,1.478l-0.03,0.165l0.03,0.645v6.553c0,0.939,0.053,1.525,0.159,1.755  c0.105,0.23,0.306,0.422,0.598,0.578c0.294,0.153,0.793,0.23,1.5,0.23v0.54h-7.014v-0.54c0.767,0,1.295-0.089,1.584-0.269  c0.286-0.18,0.486-0.45,0.598-0.81c0.051-0.171,0.075-0.666,0.075-1.485v-5.908c0-1.12-0.167-1.925-0.5-2.414  c-0.444-0.641-1.065-0.96-1.863-0.96c-0.544,0-1.085,0.146-1.621,0.435c-0.839,0.44-1.484,0.937-1.938,1.485v7.362  c0,0.9,0.063,1.485,0.188,1.755s0.313,0.473,0.561,0.607c0.248,0.135,0.751,0.201,1.508,0.201v0.54h-6.863v-0.54  c0.637,0,1.081-0.066,1.333-0.201c0.253-0.135,0.445-0.351,0.576-0.646s0.197-0.866,0.197-1.717v-5.249  c0-1.509-0.046-2.483-0.137-2.923c-0.07-0.33-0.182-0.558-0.334-0.683c-0.15-0.126-0.358-0.188-0.62-0.188  c-0.283,0-0.621,0.075-1.016,0.225l-0.227-0.54l4.181-1.679h0.652V16.248z"/>
<path fill="#004E7C" d="M134.343,13.695h6.303l-0.019,0.547h-0.293c-0.419,0-1.737-0.057-2.081,0.287  c-0.201,0.201-0.315,0.432-0.315,0.716c0,0.384,0.154,0.915,0.463,1.594l3.113,6.819l2.861-7.468  c0.16-0.404,0.238-0.803,0.238-1.196c0-0.177-0.033-0.31-0.097-0.398c-0.075-0.107-0.191-0.193-0.351-0.259  c-0.158-0.063-0.438-0.095-0.837-0.095v-0.547h4.16v0.547c-0.344,0.04-0.609,0.118-0.796,0.236  c-0.186,0.117-0.392,0.339-0.615,0.664c-0.082,0.138-0.241,0.516-0.474,1.136l-5.209,13.489c-0.501,1.308-1.161,2.297-1.976,2.966  s-1.599,1.003-2.352,1.003c-0.551,0-1.002-0.166-1.355-0.501s-0.53-0.718-0.53-1.151c0-0.412,0.127-0.745,0.384-0.996  c0.256-0.251,0.607-0.376,1.054-0.376c0.307,0,0.726,0.107,1.257,0.325c0.373,0.146,0.605,0.221,0.699,0.221  c0.279,0,0.584-0.152,0.914-0.458c0.329-0.305,0.663-0.895,0.997-1.771l0.908-2.345l-4.594-10.198  c-0.14-0.305-0.696-1.727-0.846-1.845c-0.214-0.158-0.26-0.28-0.733-0.398L134.343,13.695z"/>
<path fill="#004E7C" d="M111.31,44.959h6.305l-0.019,0.545h-0.293c-0.42,0-1.738-0.055-2.083,0.288  c-0.2,0.202-0.313,0.431-0.313,0.717c0,0.384,0.152,0.915,0.461,1.594l3.112,6.817l2.864-7.468c0.157-0.402,0.237-0.801,0.237-1.195  c0-0.177-0.032-0.31-0.099-0.397c-0.075-0.108-0.19-0.195-0.349-0.259c-0.157-0.063-0.438-0.097-0.838-0.097v-0.545h4.161v0.545  c-0.345,0.041-0.609,0.119-0.796,0.237s-0.391,0.339-0.614,0.664c-0.085,0.138-0.242,0.517-0.475,1.136l-5.209,13.49  c-0.502,1.308-1.161,2.296-1.975,2.965c-0.815,0.67-1.6,1.004-2.354,1.004c-0.55,0-1-0.167-1.354-0.501  c-0.354-0.335-0.531-0.719-0.531-1.152c0-0.413,0.128-0.745,0.385-0.995c0.255-0.251,0.607-0.377,1.055-0.377  c0.307,0,0.726,0.108,1.256,0.325c0.372,0.146,0.604,0.222,0.697,0.222c0.28,0,0.584-0.153,0.916-0.459  c0.33-0.304,0.662-0.895,0.998-1.771l0.907-2.347l-4.593-10.197c-0.141-0.305-0.697-1.726-0.848-1.844  c-0.213-0.158-0.259-0.281-0.734-0.4L111.31,44.959z"/>
<path fill="#004E7C" d="M55.405,13.486v3.067c1.2-2.045,2.431-3.067,3.693-3.067c0.574,0,1.049,0.166,1.424,0.498  c0.375,0.333,0.563,0.718,0.563,1.154c0,0.387-0.135,0.715-0.407,0.982c-0.271,0.269-0.594,0.403-0.97,0.403  c-0.366,0-0.775-0.172-1.229-0.515c-0.454-0.342-0.791-0.514-1.01-0.514c-0.188,0-0.391,0.1-0.61,0.298  c-0.47,0.407-0.954,1.076-1.456,2.01v6.536c0,0.754,0.1,1.325,0.298,1.712c0.135,0.269,0.375,0.492,0.719,0.671  c0.345,0.178,0.84,0.268,1.487,0.268v0.536h-7.339V26.99c0.73,0,1.273-0.109,1.628-0.328c0.261-0.158,0.443-0.411,0.547-0.759  c0.052-0.17,0.078-0.649,0.078-1.444v-5.285c0-1.587-0.034-2.533-0.102-2.836c-0.067-0.303-0.193-0.523-0.375-0.663  c-0.182-0.14-0.409-0.209-0.68-0.209c-0.323,0-0.689,0.075-1.096,0.223l-0.156-0.534l4.335-1.668H55.405z"/>
<path fill="#004E7C" d="M37.914,44.792v4.14l-0.517,0.032c-0.396-1.425-0.906-2.03-1.526-2.544c-0.621-0.514-1.412-0.77-2.371-0.77  c-0.731,0-1.32,0.179-1.769,0.537c-0.449,0.358-0.673,0.756-0.673,1.191c0,0.545,0.167,1.009,0.501,1.396  c0.324,0.397,0.981,0.818,1.972,1.265l2.285,1.032c2.118,0.96,3.177,2.225,3.177,3.794c0,1.212-0.493,2.188-1.479,2.93  s-2.089,1.112-3.31,1.112c-0.876,0-1.877-0.146-3.004-0.437c-0.344-0.097-0.626-0.146-0.845-0.146c-0.24,0-0.428,0.126-0.563,0.378  h-0.517V53.95h0.517c0.292,1.358,0.851,2.379,1.675,3.067c0.824,0.688,1.748,1.032,2.77,1.032c0.72,0,1.307-0.196,1.76-0.589  c0.454-0.392,0.681-0.864,0.681-1.416c0-0.669-0.253-1.232-0.759-1.688c-0.506-0.455-1.516-1.031-3.028-1.729  c-1.513-0.698-2.504-1.328-2.974-1.89c-0.469-0.553-0.704-1.25-0.704-2.095c0-1.094,0.404-2.011,1.212-2.747  c0.809-0.736,1.855-1.104,3.138-1.104c0.563,0,1.247,0.111,2.051,0.334c0.532,0.146,0.886,0.219,1.063,0.219  c0.167,0,0.297-0.034,0.392-0.101c0.094-0.069,0.203-0.22,0.329-0.452H37.914z"/>
<path fill="#004E7C" d="M135.191,44.792v4.535h-0.516c-0.396-1.424-0.905-2.394-1.526-2.907c-0.62-0.514-1.411-0.77-2.37-0.77  c-0.731,0-1.321,0.179-1.769,0.537c-0.449,0.358-0.674,0.756-0.674,1.191c0,0.545,0.167,1.009,0.502,1.396  c0.322,0.397,0.979,0.818,1.971,1.265l2.285,1.032c2.118,0.96,3.177,2.225,3.177,3.794c0,1.212-0.492,2.188-1.479,2.93  s-2.089,1.112-3.311,1.112c-0.876,0-1.878-0.146-3.004-0.437c-0.345-0.097-0.626-0.146-0.846-0.146c-0.24,0-0.427,0.126-0.563,0.378  h-0.518V53.95h0.518c0.291,1.358,0.85,2.379,1.674,3.067s1.748,1.032,2.771,1.032c0.72,0,1.307-0.196,1.76-0.589  c0.454-0.392,0.682-0.864,0.682-1.416c0-0.669-0.254-1.232-0.759-1.688c-0.507-0.455-1.516-1.031-3.029-1.729  c-1.513-0.698-2.504-1.328-2.973-1.89c-0.47-0.553-0.705-1.25-0.705-2.095c0-1.094,0.404-2.011,1.213-2.747s1.854-1.104,3.139-1.104  c0.563,0,1.246,0.111,2.05,0.334c0.532,0.146,0.887,0.219,1.064,0.219c0.165,0,0.297-0.034,0.392-0.101  c0.093-0.069,0.203-0.22,0.328-0.452H135.191z"/>
<path fill="#004E7C" d="M169.135,44.792v4.535h-0.517c-0.396-1.424-0.905-2.394-1.525-2.907c-0.621-0.514-1.411-0.77-2.37-0.77  c-0.731,0-1.321,0.179-1.77,0.537c-0.447,0.358-0.673,0.756-0.673,1.191c0,0.545,0.166,1.009,0.501,1.396  c0.324,0.397,0.981,0.818,1.972,1.265l2.284,1.032c2.118,0.96,3.178,2.225,3.178,3.794c0,1.212-0.493,2.188-1.479,2.93  s-2.089,1.112-3.311,1.112c-0.876,0-1.878-0.146-3.005-0.437c-0.344-0.097-0.625-0.146-0.845-0.146  c-0.241,0-0.428,0.126-0.563,0.378h-0.517V53.95h0.517c0.292,1.358,0.851,2.379,1.674,3.067c0.825,0.688,1.748,1.032,2.771,1.032  c0.72,0,1.307-0.196,1.76-0.589c0.454-0.392,0.68-0.864,0.68-1.416c0-0.669-0.252-1.232-0.758-1.688  c-0.507-0.455-1.516-1.031-3.027-1.729c-1.514-0.698-2.504-1.328-2.975-1.89c-0.47-0.553-0.704-1.25-0.704-2.095  c0-1.094,0.404-2.011,1.214-2.747c0.808-0.736,1.853-1.104,3.137-1.104c0.563,0,1.247,0.111,2.05,0.334  c0.533,0.146,0.887,0.219,1.063,0.219c0.168,0,0.299-0.034,0.393-0.101c0.095-0.069,0.203-0.22,0.328-0.452H169.135z"/>
<path fill="#004E7C" d="M45.324,40.616v4.477h3.597v1.042h-3.597v8.833c0,0.883,0.143,1.479,0.428,1.785  c0.286,0.308,0.653,0.462,1.101,0.462c0.369,0,0.729-0.103,1.076-0.306c0.347-0.203,0.616-0.504,0.807-0.899h0.655  c-0.393,0.972-0.947,1.702-1.664,2.193c-0.718,0.491-1.458,0.735-2.219,0.735c-0.516,0-1.02-0.126-1.513-0.378  c-0.493-0.253-0.857-0.616-1.093-1.086c-0.235-0.472-0.353-1.197-0.353-2.18v-9.16h-2.045v-0.491  c0.616-0.219,1.311-0.046,2.322-1.108c1.561-1.642,1.516-2.918,1.976-3.919H45.324z"/>
<path fill="#004E7C" d="M70.192,44.774c1.997,0.268,3.498,1.245,4.503,2.933c0.853,1.44,1.166,3.006,0.939,4.696  c-0.158,1.188-0.603,2.352-1.332,3.493c-0.729,1.141-1.632,1.955-2.708,2.44c-1.077,0.484-2.224,0.646-3.444,0.482  c-1.987-0.267-3.459-1.274-4.417-3.023c-0.809-1.476-1.102-3.048-0.878-4.719c0.163-1.217,0.625-2.387,1.386-3.509  c0.76-1.122,1.669-1.904,2.725-2.349C68.023,44.776,69.098,44.629,70.192,44.774 M69.62,45.655c-0.508-0.067-1.04,0.018-1.594,0.252  c-0.554,0.235-1.041,0.714-1.459,1.434c-0.418,0.721-0.708,1.68-0.869,2.877c-0.259,1.933-0.1,3.649,0.476,5.151  s1.488,2.338,2.736,2.505c0.931,0.124,1.75-0.159,2.458-0.852c0.708-0.691,1.188-1.979,1.44-3.862  c0.315-2.355,0.06-4.277-0.768-5.765C71.483,46.378,70.676,45.798,69.62,45.655"/>
<path fill="#004E7C" d="M55.37,44.872v3.067c1.2-2.044,2.431-3.067,3.694-3.067c0.574,0,1.048,0.167,1.424,0.5  c0.376,0.332,0.563,0.717,0.563,1.153c0,0.387-0.136,0.714-0.407,0.982c-0.272,0.268-0.595,0.401-0.971,0.401  c-0.365,0-0.774-0.171-1.228-0.514c-0.454-0.342-0.791-0.514-1.01-0.514c-0.188,0-0.391,0.1-0.61,0.298  c-0.469,0.408-0.954,1.078-1.456,2.011v6.536c0,0.755,0.1,1.325,0.298,1.712c0.135,0.269,0.375,0.491,0.72,0.669  c0.344,0.18,0.839,0.269,1.486,0.269v0.535h-7.34v-0.535c0.73,0,1.273-0.108,1.627-0.327c0.261-0.158,0.443-0.412,0.548-0.759  c0.052-0.169,0.079-0.65,0.079-1.444v-5.287c0-1.587-0.034-2.533-0.102-2.835c-0.068-0.303-0.193-0.523-0.376-0.663  c-0.183-0.139-0.41-0.208-0.681-0.208c-0.323,0-0.688,0.075-1.095,0.224l-0.156-0.537l4.335-1.667H55.37z"/>
<path fill="#004E7C" d="M77.562,46.313l4.413-1.655h0.595v3.107c0.74-1.171,1.483-1.992,2.229-2.461  c0.746-0.47,1.531-0.704,2.355-0.704c1.44,0,2.641,0.522,3.6,1.568c1.179,1.276,1.768,2.943,1.768,4.995  c0,2.294-0.709,4.191-2.127,5.692c-1.169,1.229-2.64,1.843-4.414,1.843c-0.771,0-1.439-0.101-2.002-0.304  c-0.418-0.146-0.888-0.436-1.409-0.871v4.051c0,0.91,0.06,1.488,0.18,1.735s0.329,0.443,0.626,0.588  c0.299,0.146,0.838,0.218,1.62,0.218v0.538h-7.513v-0.538h0.393c0.574,0.01,1.063-0.092,1.471-0.305  c0.197-0.107,0.352-0.278,0.461-0.516c0.11-0.237,0.165-0.84,0.165-1.808V48.912c0-0.861-0.042-1.409-0.125-1.642  c-0.084-0.232-0.218-0.406-0.399-0.522s-0.431-0.175-0.743-0.175c-0.251,0-0.569,0.068-0.954,0.203L77.562,46.313z M82.569,48.621  v4.967c0,1.074,0.047,1.781,0.141,2.12c0.146,0.561,0.504,1.055,1.072,1.48c0.568,0.427,1.286,0.639,2.151,0.639  c1.043,0,1.889-0.377,2.536-1.133c0.845-0.986,1.267-2.376,1.267-4.167c0-2.032-0.479-3.596-1.439-4.689  c-0.668-0.755-1.461-1.133-2.379-1.133c-0.5,0-0.996,0.115-1.486,0.349C84.057,47.228,83.436,47.751,82.569,48.621"/>
<path fill="#004E7C" d="M99.179,37.959v9.755c1.166-1.185,2.092-1.943,2.774-2.279c0.684-0.334,1.367-0.502,2.052-0.502  c0.82,0,1.524,0.21,2.114,0.627c0.587,0.417,1.024,1.071,1.308,1.965c0.2,0.622,0.3,1.758,0.3,3.408v4.718  c0,0.844,0.073,1.422,0.221,1.731c0.105,0.233,0.284,0.417,0.536,0.554c0.252,0.136,0.715,0.205,1.389,0.205v0.522h-7.099v-0.522  h0.332c0.673,0,1.14-0.096,1.403-0.285c0.263-0.188,0.447-0.468,0.553-0.836c0.031-0.156,0.047-0.613,0.047-1.369v-4.718  c0-1.457-0.082-2.413-0.245-2.869c-0.163-0.457-0.423-0.798-0.78-1.026s-0.788-0.342-1.293-0.342c-0.516,0-1.052,0.126-1.609,0.379  c-0.558,0.252-1.225,0.762-2.002,1.528v7.048c0,0.911,0.055,1.48,0.164,1.703c0.111,0.223,0.316,0.41,0.616,0.56  c0.3,0.151,0.817,0.228,1.553,0.228v0.522h-7.16v-0.522c0.642,0,1.146-0.093,1.514-0.277c0.211-0.097,0.379-0.281,0.505-0.553  c0.126-0.273,0.189-0.826,0.189-1.66V43.578c0-1.523-0.039-2.46-0.118-2.809c-0.079-0.351-0.2-0.588-0.363-0.714  s-0.381-0.189-0.654-0.189c-0.221,0-0.578,0.077-1.072,0.232l-0.221-0.509l4.321-1.631H99.179z"/>
<path fill="#004E7C" d="M144.896,58.774h-6.752v-0.682h0.073c0.647,0,1.085-0.063,1.302-0.183c0.212-0.121,0.384-0.325,0.51-0.605  c0.129-0.284,0.195-0.849,0.195-1.673v-5.233c0-1.461-0.045-2.418-0.133-2.848c-0.065-0.297-0.167-0.505-0.302-0.617  c-0.285-0.236-0.816-0.225-1.549,0.049l-0.064,0.025l-0.261-0.669l4.19-1.692h0.726v10.985c0,0.835,0.062,1.397,0.18,1.666  c0.116,0.267,0.291,0.468,0.519,0.596c0.229,0.133,0.664,0.199,1.293,0.199h0.073V58.774z"/>
<path fill="#004E7C" d="M143.738,39.332c0,1.046-0.815,1.895-1.821,1.895c-1.007,0-1.823-0.849-1.823-1.895s0.816-1.895,1.823-1.895  C142.923,37.438,143.738,38.286,143.738,39.332"/>
<path fill="#004E7C" d="M158.782,53.291c-0.387,1.663-1.144,2.942-2.269,3.839c-1.127,0.896-2.375,1.344-3.74,1.344  c-1.629,0-3.047-0.602-4.258-1.806c-1.21-1.203-1.814-2.831-1.814-4.878c0-1.985,0.669-3.599,2.011-4.839  c1.34-1.24,2.95-1.86,4.827-1.86c1.409,0,2.567,0.329,3.474,0.985c0.908,0.658,1.362,1.34,1.362,2.047  c0,0.349-0.128,0.632-0.383,0.848c-0.256,0.216-0.613,0.324-1.072,0.324c-0.616,0-1.08-0.174-1.393-0.524  c-0.178-0.193-0.295-0.561-0.354-1.103c-0.057-0.542-0.268-0.956-0.633-1.24c-0.365-0.275-0.872-0.413-1.518-0.413  c-1.043,0-1.884,0.34-2.521,1.02c-0.844,0.9-1.268,2.091-1.268,3.569c0,1.507,0.42,2.837,1.26,3.99  c0.841,1.153,1.975,1.73,3.403,1.73c1.023,0,1.941-0.308,2.755-0.924c0.573-0.424,1.132-1.189,1.675-2.302L158.782,53.291z"/>
<path fill="#004E7C" d="M28.469,34.621l-0.506,0.809c0,0,0.775-0.338,1.314,0.573c0.777,1.311-1.348,3.806-1.348,3.806l-2.19-5.154  c0,0,2.628-1.111,3.234-2.965c0.606-1.852-0.405-3.435-1.819-3.907c-1.977-0.658-4.178,0.539-4.683,2.863  c-0.439,2.021,0.578,4.011,0.578,4.011s-6.843,2.424-3.508,8.116c2.177,3.717,7.916-0.505,7.916-0.505l1.402,1.124l1.125,0.325  l-0.54,0.605l0.405,0.404l3.268-2.357l-0.472-0.607c0,0-0.93,1.77-2.594,0.709c-1.583-1.012-1.347-1.82-1.347-1.82  s0.511-0.737,1.583-2.661c0.976-1.751,1.179-2.357,1.92-2.458c0.571-0.078,138.307,0,138.307,0v-0.91H28.469z M24.83,30.275  c0.101-0.809,0.606-2.054,1.819-1.718c1.212,0.337,1.224,1.872,0.977,2.695c-0.404,1.348-2.055,2.627-2.19,2.459  C25.033,33.206,24.729,31.084,24.83,30.275 M21.529,41.459c-1.926-3.5,1.887-5.66,1.887-5.66s0.516,1.522,1.392,3.342  c0.876,1.818,1.404,2.621,1.404,2.621S23.011,44.154,21.529,41.459"/>
<path fill="#31B5C1" d="M18.012,19.717h-8.99l-1.274,4.01c-0.712,1.84-0.015,2.418,0.321,2.688c0.337,0.271,0.855,0.294,1.975,0.375  v0.795H2.241v-0.642c0.97-0.174,1.599-0.398,1.884-0.675c0.583-0.556,1.227-1.682,1.936-3.381l8.167-21.206l1.213-0.041  l8.941,21.455c0.283,0.684,1.32,2.915,1.483,3.06c0.531,0.468,0.783,0.521,1.73,0.578v0.852H16.767v-0.642  c0.925-0.045,1.837-0.201,2.163-0.468c0.325-0.265,1.129-0.674,0.329-3.307L18.012,19.717z M17.532,18.434l-3.938-9.498  l-4.041,9.498H17.532z"/>
<path fill="#31B5C1" d="M18,51.107H9.01l-1.275,4.012c-0.712,1.84-0.015,2.417,0.322,2.688c0.336,0.272,0.855,0.295,1.974,0.375  v0.796H2.229v-0.641c0.97-0.174,1.598-0.399,1.884-0.677c0.582-0.556,1.227-1.682,1.935-3.38l8.167-21.205l1.213-0.042l8.941,21.455  c0.283,0.683,1.32,2.915,1.483,3.06c0.531,0.468,0.783,0.52,1.73,0.576v0.854H16.755v-0.641c0.924-0.047,1.837-0.203,2.163-0.47  c0.325-0.265,1.128-0.673,0.329-3.306L18,51.107z M17.52,49.825l-3.938-9.498l-4.042,9.498H17.52z"/>
</svg>